<svg xmlns="http://www.w3.org/2000/svg" width="800" height="450" viewBox="0 0 800 450">
  <defs>
    <linearGradient id="bg2" x1="0%" y1="0%" x2="100%" y2="100%">
      <stop offset="0%" style="stop-color:#0f172a"/>
      <stop offset="100%" style="stop-color:#1e293b"/>
    </linearGradient>
    <linearGradient id="acc2" x1="0%" y1="0%" x2="100%" y2="0%">
      <stop offset="0%" style="stop-color:#10b981"/>
      <stop offset="100%" style="stop-color:#06b6d4"/>
    </linearGradient>
  </defs>
  <rect width="800" height="450" fill="url(#bg2)"/>
  <!-- Browser mockup -->
  <rect x="120" y="60" width="560" height="340" rx="12" fill="#1e293b" stroke="#334155" stroke-width="2"/>
  <rect x="120" y="60" width="560" height="36" rx="12" fill="#334155"/>
  <circle cx="146" cy="78" r="6" fill="#ef4444"/>
  <circle cx="166" cy="78" r="6" fill="#eab308"/>
  <circle cx="186" cy="78" r="6" fill="#22c55e"/>
  <rect x="220" y="70" width="200" height="16" rx="8" fill="#475569"/>
  <!-- Content lines -->
  <rect x="150" y="120" width="200" height="12" rx="3" fill="url(#acc2)" opacity="0.8"/>
  <rect x="150" y="148" width="500" height="8" rx="3" fill="#475569" opacity="0.5"/>
  <rect x="150" y="166" width="420" height="8" rx="3" fill="#475569" opacity="0.4"/>
  <!-- Cards representing bids -->
  <rect x="150" y="196" width="160" height="80" rx="8" fill="#0f172a" stroke="#10b981" stroke-width="1.5"/>
  <text x="230" y="225" text-anchor="middle" fill="#10b981" font-family="Arial" font-size="11" font-weight="600">HIGH PRIORITY</text>
  <rect x="155" y="238" width="100" height="6" rx="3" fill="#334155"/>
  <rect x="155" y="252" width="70" height="6" rx="3" fill="#334155"/>
  <rect x="330" y="196" width="160" height="80" rx="8" fill="#0f172a" stroke="#eab308" stroke-width="1.5"/>
  <text x="410" y="225" text-anchor="middle" fill="#eab308" font-family="Arial" font-size="11" font-weight="600">MED PRIORITY</text>
  <rect x="335" y="238" width="100" height="6" rx="3" fill="#334155"/>
  <rect x="335" y="252" width="70" height="6" rx="3" fill="#334155"/>
  <rect x="510" y="196" width="160" height="80" rx="8" fill="#0f172a" stroke="#64748b" stroke-width="1.5"/>
  <text x="590" y="225" text-anchor="middle" fill="#64748b" font-family="Arial" font-size="11" font-weight="600">LOW PRIORITY</text>
  <rect x="515" y="238" width="100" height="6" rx="3" fill="#334155"/>
  <rect x="515" y="252" width="70" height="6" rx="3" fill="#334155"/>
  <!-- AI brain icon -->
  <circle cx="400" cy="340" r="22" fill="none" stroke="url(#acc2)" stroke-width="2"/>
  <path d="M388 340 Q394 328 400 340 Q406 328 412 340" fill="none" stroke="#10b981" stroke-width="2"/>
  <path d="M388 340 Q394 352 400 340 Q406 352 412 340" fill="none" stroke="#06b6d4" stroke-width="2"/>
  <!-- Title -->
  <text x="400" y="425" text-anchor="middle" fill="#94a3b8" font-family="Arial, sans-serif" font-size="18" font-weight="600">AI Bid Scraper  |  OpenAI + Flask + Selenium</text>
</svg>
